<?xml version="1.0" encoding="UTF-8" standalone="no"?><!DOCTYPE svg PUBLIC "-//W3C//DTD SVG 1.1//EN" "http://www.w3.org/Graphics/SVG/1.1/DTD/svg11.dtd"><svg width="100%" height="100%" viewBox="0 0 416 416" version="1.1" xmlns="http://www.w3.org/2000/svg" xmlns:xlink="http://www.w3.org/1999/xlink" xml:space="preserve" xmlns:serif="http://www.serif.com/" style="fill-rule:evenodd;clip-rule:evenodd;stroke-linejoin:round;stroke-miterlimit:2;"><circle cx="207.5" cy="210.5" r="147.5" style="fill:#fff;"/><path d="M0,208c0,114.9 93.1,208 208,208c114.9,0 208,-93.1 208,-208c0,-114.9 -93.1,-208 -208,-208c-114.9,0 -208,93.1 -208,208Zm289.1,-43.4c7.5,-7.5 19.8,-7.5 27.3,0c3.8,3.8 5.6,8.7 5.6,13.6c0,4.9 -1.9,9.9 -5.7,13.7l-94.3,94c-7.6,6.9 -19.3,6.7 -26.6,-0.6l-95.7,-95.4c-7.5,-7.5 -7.6,-19.7 0,-27.3c7.5,-7.5 19.7,-7.6 27.3,0l81.1,81.9l81,-79.9Z" style="fill:#b5e61c;fill-rule:nonzero;"/></svg>